<?xml version="1.0" encoding="utf-8" standalone="no"?>
<!DOCTYPE svg PUBLIC "-//W3C//DTD SVG 1.1//EN"
  "http://www.w3.org/Graphics/SVG/1.1/DTD/svg11.dtd">
<svg height="288pt" version="1.1" viewBox="0 0 432 288" width="432pt" xmlns="http://www.w3.org/2000/svg" xmlns:xlink="http://www.w3.org/1999/xlink">
 <metadata>
  <rdf:RDF xmlns:cc="http://creativecommons.org/ns#" xmlns:dc="http://purl.org/dc/elements/1.1/" xmlns:rdf="http://www.w3.org/1999/02/22-rdf-syntax-ns#">
   <cc:Work>
    <dc:type rdf:resource="http://purl.org/dc/dcmitype/StillImage"/>
    <dc:date>2022-11-28T12:33:51.384141</dc:date>
    <dc:format>image/svg+xml</dc:format>
    <dc:creator>
     <cc:Agent>
      <dc:title>Matplotlib v3.4.3, https://matplotlib.org/</dc:title>
     </cc:Agent>
    </dc:creator>
   </cc:Work>
  </rdf:RDF>
 </metadata>
 <defs>
  <style type="text/css">*{stroke-linecap:butt;stroke-linejoin:round;}</style>
 </defs>
 <g id="figure_1">
  <g id="patch_1">
   <path d="M 0 288 
L 432 288 
L 432 0 
L 0 0 
z
" style="fill:none;"/>
  </g>
  <g id="axes_1">
   <g id="patch_2">
    <path d="M 54 252 
L 388.8 252 
L 388.8 34.56 
L 54 34.56 
z
" style="fill:#ffffff;"/>
   </g>
   <g id="matplotlib.axis_1">
    <g id="xtick_1">
     <g id="line2d_1">
      <defs>
       <path d="M 0 0 
L 0 3.5 
" id="mb348025b5a" style="stroke:#000000;stroke-width:0.8;"/>
      </defs>
      <g>
       <use style="stroke:#000000;stroke-width:0.8;" x="69.218182" xlink:href="#mb348025b5a" y="252"/>
      </g>
     </g>
     <g id="text_1">
      <!-- 0 -->
      <g transform="translate(66.036932 266.598437)scale(0.1 -0.1)">
       <defs>
        <path d="M 2034 4250 
Q 1547 4250 1301 3770 
Q 1056 3291 1056 2328 
Q 1056 1369 1301 889 
Q 1547 409 2034 409 
Q 2525 409 2770 889 
Q 3016 1369 3016 2328 
Q 3016 3291 2770 3770 
Q 2525 4250 2034 4250 
z
M 2034 4750 
Q 2819 4750 3233 4129 
Q 3647 3509 3647 2328 
Q 3647 1150 3233 529 
Q 2819 -91 2034 -91 
Q 1250 -91 836 529 
Q 422 1150 422 2328 
Q 422 3509 836 4129 
Q 1250 4750 2034 4750 
z
" id="DejaVuSans-30" transform="scale(0.015625)"/>
       </defs>
       <use xlink:href="#DejaVuSans-30"/>
      </g>
     </g>
    </g>
    <g id="xtick_2">
     <g id="line2d_2">
      <g>
       <use style="stroke:#000000;stroke-width:0.8;" x="119.945455" xlink:href="#mb348025b5a" y="252"/>
      </g>
     </g>
     <g id="text_2">
      <!-- 50 -->
      <g transform="translate(113.582955 266.598437)scale(0.1 -0.1)">
       <defs>
        <path d="M 691 4666 
L 3169 4666 
L 3169 4134 
L 1269 4134 
L 1269 2991 
Q 1406 3038 1543 3061 
Q 1681 3084 1819 3084 
Q 2600 3084 3056 2656 
Q 3513 2228 3513 1497 
Q 3513 744 3044 326 
Q 2575 -91 1722 -91 
Q 1428 -91 1123 -41 
Q 819 9 494 109 
L 494 744 
Q 775 591 1075 516 
Q 1375 441 1709 441 
Q 2250 441 2565 725 
Q 2881 1009 2881 1497 
Q 2881 1984 2565 2268 
Q 2250 2553 1709 2553 
Q 1456 2553 1204 2497 
Q 953 2441 691 2322 
L 691 4666 
z
" id="DejaVuSans-35" transform="scale(0.015625)"/>
       </defs>
       <use xlink:href="#DejaVuSans-35"/>
       <use x="63.623047" xlink:href="#DejaVuSans-30"/>
      </g>
     </g>
    </g>
    <g id="xtick_3">
     <g id="line2d_3">
      <g>
       <use style="stroke:#000000;stroke-width:0.8;" x="170.672727" xlink:href="#mb348025b5a" y="252"/>
      </g>
     </g>
     <g id="text_3">
      <!-- 100 -->
      <g transform="translate(161.128977 266.598437)scale(0.1 -0.1)">
       <defs>
        <path d="M 794 531 
L 1825 531 
L 1825 4091 
L 703 3866 
L 703 4441 
L 1819 4666 
L 2450 4666 
L 2450 531 
L 3481 531 
L 3481 0 
L 794 0 
L 794 531 
z
" id="DejaVuSans-31" transform="scale(0.015625)"/>
       </defs>
       <use xlink:href="#DejaVuSans-31"/>
       <use x="63.623047" xlink:href="#DejaVuSans-30"/>
       <use x="127.246094" xlink:href="#DejaVuSans-30"/>
      </g>
     </g>
    </g>
    <g id="xtick_4">
     <g id="line2d_4">
      <g>
       <use style="stroke:#000000;stroke-width:0.8;" x="221.4" xlink:href="#mb348025b5a" y="252"/>
      </g>
     </g>
     <g id="text_4">
      <!-- 150 -->
      <g transform="translate(211.85625 266.598437)scale(0.1 -0.1)">
       <use xlink:href="#DejaVuSans-31"/>
       <use x="63.623047" xlink:href="#DejaVuSans-35"/>
       <use x="127.246094" xlink:href="#DejaVuSans-30"/>
      </g>
     </g>
    </g>
    <g id="xtick_5">
     <g id="line2d_5">
      <g>
       <use style="stroke:#000000;stroke-width:0.8;" x="272.127273" xlink:href="#mb348025b5a" y="252"/>
      </g>
     </g>
     <g id="text_5">
      <!-- 200 -->
      <g transform="translate(262.583523 266.598437)scale(0.1 -0.1)">
       <defs>
        <path d="M 1228 531 
L 3431 531 
L 3431 0 
L 469 0 
L 469 531 
Q 828 903 1448 1529 
Q 2069 2156 2228 2338 
Q 2531 2678 2651 2914 
Q 2772 3150 2772 3378 
Q 2772 3750 2511 3984 
Q 2250 4219 1831 4219 
Q 1534 4219 1204 4116 
Q 875 4013 500 3803 
L 500 4441 
Q 881 4594 1212 4672 
Q 1544 4750 1819 4750 
Q 2544 4750 2975 4387 
Q 3406 4025 3406 3419 
Q 3406 3131 3298 2873 
Q 3191 2616 2906 2266 
Q 2828 2175 2409 1742 
Q 1991 1309 1228 531 
z
" id="DejaVuSans-32" transform="scale(0.015625)"/>
       </defs>
       <use xlink:href="#DejaVuSans-32"/>
       <use x="63.623047" xlink:href="#DejaVuSans-30"/>
       <use x="127.246094" xlink:href="#DejaVuSans-30"/>
      </g>
     </g>
    </g>
    <g id="xtick_6">
     <g id="line2d_6">
      <g>
       <use style="stroke:#000000;stroke-width:0.8;" x="322.854545" xlink:href="#mb348025b5a" y="252"/>
      </g>
     </g>
     <g id="text_6">
      <!-- 250 -->
      <g transform="translate(313.310795 266.598437)scale(0.1 -0.1)">
       <use xlink:href="#DejaVuSans-32"/>
       <use x="63.623047" xlink:href="#DejaVuSans-35"/>
       <use x="127.246094" xlink:href="#DejaVuSans-30"/>
      </g>
     </g>
    </g>
    <g id="xtick_7">
     <g id="line2d_7">
      <g>
       <use style="stroke:#000000;stroke-width:0.8;" x="373.581818" xlink:href="#mb348025b5a" y="252"/>
      </g>
     </g>
     <g id="text_7">
      <!-- 300 -->
      <g transform="translate(364.038068 266.598437)scale(0.1 -0.1)">
       <defs>
        <path d="M 2597 2516 
Q 3050 2419 3304 2112 
Q 3559 1806 3559 1356 
Q 3559 666 3084 287 
Q 2609 -91 1734 -91 
Q 1441 -91 1130 -33 
Q 819 25 488 141 
L 488 750 
Q 750 597 1062 519 
Q 1375 441 1716 441 
Q 2309 441 2620 675 
Q 2931 909 2931 1356 
Q 2931 1769 2642 2001 
Q 2353 2234 1838 2234 
L 1294 2234 
L 1294 2753 
L 1863 2753 
Q 2328 2753 2575 2939 
Q 2822 3125 2822 3475 
Q 2822 3834 2567 4026 
Q 2313 4219 1838 4219 
Q 1578 4219 1281 4162 
Q 984 4106 628 3988 
L 628 4550 
Q 988 4650 1302 4700 
Q 1616 4750 1894 4750 
Q 2613 4750 3031 4423 
Q 3450 4097 3450 3541 
Q 3450 3153 3228 2886 
Q 3006 2619 2597 2516 
z
" id="DejaVuSans-33" transform="scale(0.015625)"/>
       </defs>
       <use xlink:href="#DejaVuSans-33"/>
       <use x="63.623047" xlink:href="#DejaVuSans-30"/>
       <use x="127.246094" xlink:href="#DejaVuSans-30"/>
      </g>
     </g>
    </g>
    <g id="text_8">
     <!-- Relative Distance -->
     <g transform="translate(177.784375 280.276563)scale(0.1 -0.1)">
      <defs>
       <path d="M 2841 2188 
Q 3044 2119 3236 1894 
Q 3428 1669 3622 1275 
L 4263 0 
L 3584 0 
L 2988 1197 
Q 2756 1666 2539 1819 
Q 2322 1972 1947 1972 
L 1259 1972 
L 1259 0 
L 628 0 
L 628 4666 
L 2053 4666 
Q 2853 4666 3247 4331 
Q 3641 3997 3641 3322 
Q 3641 2881 3436 2590 
Q 3231 2300 2841 2188 
z
M 1259 4147 
L 1259 2491 
L 2053 2491 
Q 2509 2491 2742 2702 
Q 2975 2913 2975 3322 
Q 2975 3731 2742 3939 
Q 2509 4147 2053 4147 
L 1259 4147 
z
" id="DejaVuSans-52" transform="scale(0.015625)"/>
       <path d="M 3597 1894 
L 3597 1613 
L 953 1613 
Q 991 1019 1311 708 
Q 1631 397 2203 397 
Q 2534 397 2845 478 
Q 3156 559 3463 722 
L 3463 178 
Q 3153 47 2828 -22 
Q 2503 -91 2169 -91 
Q 1331 -91 842 396 
Q 353 884 353 1716 
Q 353 2575 817 3079 
Q 1281 3584 2069 3584 
Q 2775 3584 3186 3129 
Q 3597 2675 3597 1894 
z
M 3022 2063 
Q 3016 2534 2758 2815 
Q 2500 3097 2075 3097 
Q 1594 3097 1305 2825 
Q 1016 2553 972 2059 
L 3022 2063 
z
" id="DejaVuSans-65" transform="scale(0.015625)"/>
       <path d="M 603 4863 
L 1178 4863 
L 1178 0 
L 603 0 
L 603 4863 
z
" id="DejaVuSans-6c" transform="scale(0.015625)"/>
       <path d="M 2194 1759 
Q 1497 1759 1228 1600 
Q 959 1441 959 1056 
Q 959 750 1161 570 
Q 1363 391 1709 391 
Q 2188 391 2477 730 
Q 2766 1069 2766 1631 
L 2766 1759 
L 2194 1759 
z
M 3341 1997 
L 3341 0 
L 2766 0 
L 2766 531 
Q 2569 213 2275 61 
Q 1981 -91 1556 -91 
Q 1019 -91 701 211 
Q 384 513 384 1019 
Q 384 1609 779 1909 
Q 1175 2209 1959 2209 
L 2766 2209 
L 2766 2266 
Q 2766 2663 2505 2880 
Q 2244 3097 1772 3097 
Q 1472 3097 1187 3025 
Q 903 2953 641 2809 
L 641 3341 
Q 956 3463 1253 3523 
Q 1550 3584 1831 3584 
Q 2591 3584 2966 3190 
Q 3341 2797 3341 1997 
z
" id="DejaVuSans-61" transform="scale(0.015625)"/>
       <path d="M 1172 4494 
L 1172 3500 
L 2356 3500 
L 2356 3053 
L 1172 3053 
L 1172 1153 
Q 1172 725 1289 603 
Q 1406 481 1766 481 
L 2356 481 
L 2356 0 
L 1766 0 
Q 1100 0 847 248 
Q 594 497 594 1153 
L 594 3053 
L 172 3053 
L 172 3500 
L 594 3500 
L 594 4494 
L 1172 4494 
z
" id="DejaVuSans-74" transform="scale(0.015625)"/>
       <path d="M 603 3500 
L 1178 3500 
L 1178 0 
L 603 0 
L 603 3500 
z
M 603 4863 
L 1178 4863 
L 1178 4134 
L 603 4134 
L 603 4863 
z
" id="DejaVuSans-69" transform="scale(0.015625)"/>
       <path d="M 191 3500 
L 800 3500 
L 1894 563 
L 2988 3500 
L 3597 3500 
L 2284 0 
L 1503 0 
L 191 3500 
z
" id="DejaVuSans-76" transform="scale(0.015625)"/>
       <path id="DejaVuSans-20" transform="scale(0.015625)"/>
       <path d="M 1259 4147 
L 1259 519 
L 2022 519 
Q 2988 519 3436 956 
Q 3884 1394 3884 2338 
Q 3884 3275 3436 3711 
Q 2988 4147 2022 4147 
L 1259 4147 
z
M 628 4666 
L 1925 4666 
Q 3281 4666 3915 4102 
Q 4550 3538 4550 2338 
Q 4550 1131 3912 565 
Q 3275 0 1925 0 
L 628 0 
L 628 4666 
z
" id="DejaVuSans-44" transform="scale(0.015625)"/>
       <path d="M 2834 3397 
L 2834 2853 
Q 2591 2978 2328 3040 
Q 2066 3103 1784 3103 
Q 1356 3103 1142 2972 
Q 928 2841 928 2578 
Q 928 2378 1081 2264 
Q 1234 2150 1697 2047 
L 1894 2003 
Q 2506 1872 2764 1633 
Q 3022 1394 3022 966 
Q 3022 478 2636 193 
Q 2250 -91 1575 -91 
Q 1294 -91 989 -36 
Q 684 19 347 128 
L 347 722 
Q 666 556 975 473 
Q 1284 391 1588 391 
Q 1994 391 2212 530 
Q 2431 669 2431 922 
Q 2431 1156 2273 1281 
Q 2116 1406 1581 1522 
L 1381 1569 
Q 847 1681 609 1914 
Q 372 2147 372 2553 
Q 372 3047 722 3315 
Q 1072 3584 1716 3584 
Q 2034 3584 2315 3537 
Q 2597 3491 2834 3397 
z
" id="DejaVuSans-73" transform="scale(0.015625)"/>
       <path d="M 3513 2113 
L 3513 0 
L 2938 0 
L 2938 2094 
Q 2938 2591 2744 2837 
Q 2550 3084 2163 3084 
Q 1697 3084 1428 2787 
Q 1159 2491 1159 1978 
L 1159 0 
L 581 0 
L 581 3500 
L 1159 3500 
L 1159 2956 
Q 1366 3272 1645 3428 
Q 1925 3584 2291 3584 
Q 2894 3584 3203 3211 
Q 3513 2838 3513 2113 
z
" id="DejaVuSans-6e" transform="scale(0.015625)"/>
       <path d="M 3122 3366 
L 3122 2828 
Q 2878 2963 2633 3030 
Q 2388 3097 2138 3097 
Q 1578 3097 1268 2742 
Q 959 2388 959 1747 
Q 959 1106 1268 751 
Q 1578 397 2138 397 
Q 2388 397 2633 464 
Q 2878 531 3122 666 
L 3122 134 
Q 2881 22 2623 -34 
Q 2366 -91 2075 -91 
Q 1284 -91 818 406 
Q 353 903 353 1747 
Q 353 2603 823 3093 
Q 1294 3584 2113 3584 
Q 2378 3584 2631 3529 
Q 2884 3475 3122 3366 
z
" id="DejaVuSans-63" transform="scale(0.015625)"/>
      </defs>
      <use xlink:href="#DejaVuSans-52"/>
      <use x="64.982422" xlink:href="#DejaVuSans-65"/>
      <use x="126.505859" xlink:href="#DejaVuSans-6c"/>
      <use x="154.289062" xlink:href="#DejaVuSans-61"/>
      <use x="215.568359" xlink:href="#DejaVuSans-74"/>
      <use x="254.777344" xlink:href="#DejaVuSans-69"/>
      <use x="282.560547" xlink:href="#DejaVuSans-76"/>
      <use x="341.740234" xlink:href="#DejaVuSans-65"/>
      <use x="403.263672" xlink:href="#DejaVuSans-20"/>
      <use x="435.050781" xlink:href="#DejaVuSans-44"/>
      <use x="512.052734" xlink:href="#DejaVuSans-69"/>
      <use x="539.835938" xlink:href="#DejaVuSans-73"/>
      <use x="591.935547" xlink:href="#DejaVuSans-74"/>
      <use x="631.144531" xlink:href="#DejaVuSans-61"/>
      <use x="692.423828" xlink:href="#DejaVuSans-6e"/>
      <use x="755.802734" xlink:href="#DejaVuSans-63"/>
      <use x="810.783203" xlink:href="#DejaVuSans-65"/>
     </g>
    </g>
   </g>
   <g id="matplotlib.axis_2">
    <g id="ytick_1">
     <g id="line2d_8">
      <defs>
       <path d="M 0 0 
L -3.5 0 
" id="m4a0e0ebecc" style="stroke:#000000;stroke-width:0.8;"/>
      </defs>
      <g>
       <use style="stroke:#000000;stroke-width:0.8;" x="54" xlink:href="#m4a0e0ebecc" y="245.510194"/>
      </g>
     </g>
     <g id="text_9">
      <!-- −60 -->
      <g transform="translate(25.895312 249.309413)scale(0.1 -0.1)">
       <defs>
        <path d="M 678 2272 
L 4684 2272 
L 4684 1741 
L 678 1741 
L 678 2272 
z
" id="DejaVuSans-2212" transform="scale(0.015625)"/>
        <path d="M 2113 2584 
Q 1688 2584 1439 2293 
Q 1191 2003 1191 1497 
Q 1191 994 1439 701 
Q 1688 409 2113 409 
Q 2538 409 2786 701 
Q 3034 994 3034 1497 
Q 3034 2003 2786 2293 
Q 2538 2584 2113 2584 
z
M 3366 4563 
L 3366 3988 
Q 3128 4100 2886 4159 
Q 2644 4219 2406 4219 
Q 1781 4219 1451 3797 
Q 1122 3375 1075 2522 
Q 1259 2794 1537 2939 
Q 1816 3084 2150 3084 
Q 2853 3084 3261 2657 
Q 3669 2231 3669 1497 
Q 3669 778 3244 343 
Q 2819 -91 2113 -91 
Q 1303 -91 875 529 
Q 447 1150 447 2328 
Q 447 3434 972 4092 
Q 1497 4750 2381 4750 
Q 2619 4750 2861 4703 
Q 3103 4656 3366 4563 
z
" id="DejaVuSans-36" transform="scale(0.015625)"/>
       </defs>
       <use xlink:href="#DejaVuSans-2212"/>
       <use x="83.789062" xlink:href="#DejaVuSans-36"/>
       <use x="147.412109" xlink:href="#DejaVuSans-30"/>
      </g>
     </g>
    </g>
    <g id="ytick_2">
     <g id="line2d_9">
      <g>
       <use style="stroke:#000000;stroke-width:0.8;" x="54" xlink:href="#m4a0e0ebecc" y="212.16753"/>
      </g>
     </g>
     <g id="text_10">
      <!-- −50 -->
      <g transform="translate(25.895312 215.966748)scale(0.1 -0.1)">
       <use xlink:href="#DejaVuSans-2212"/>
       <use x="83.789062" xlink:href="#DejaVuSans-35"/>
       <use x="147.412109" xlink:href="#DejaVuSans-30"/>
      </g>
     </g>
    </g>
    <g id="ytick_3">
     <g id="line2d_10">
      <g>
       <use style="stroke:#000000;stroke-width:0.8;" x="54" xlink:href="#m4a0e0ebecc" y="178.824865"/>
      </g>
     </g>
     <g id="text_11">
      <!-- −40 -->
      <g transform="translate(25.895312 182.624084)scale(0.1 -0.1)">
       <defs>
        <path d="M 2419 4116 
L 825 1625 
L 2419 1625 
L 2419 4116 
z
M 2253 4666 
L 3047 4666 
L 3047 1625 
L 3713 1625 
L 3713 1100 
L 3047 1100 
L 3047 0 
L 2419 0 
L 2419 1100 
L 313 1100 
L 313 1709 
L 2253 4666 
z
" id="DejaVuSans-34" transform="scale(0.015625)"/>
       </defs>
       <use xlink:href="#DejaVuSans-2212"/>
       <use x="83.789062" xlink:href="#DejaVuSans-34"/>
       <use x="147.412109" xlink:href="#DejaVuSans-30"/>
      </g>
     </g>
    </g>
    <g id="ytick_4">
     <g id="line2d_11">
      <g>
       <use style="stroke:#000000;stroke-width:0.8;" x="54" xlink:href="#m4a0e0ebecc" y="145.482201"/>
      </g>
     </g>
     <g id="text_12">
      <!-- −30 -->
      <g transform="translate(25.895312 149.28142)scale(0.1 -0.1)">
       <use xlink:href="#DejaVuSans-2212"/>
       <use x="83.789062" xlink:href="#DejaVuSans-33"/>
       <use x="147.412109" xlink:href="#DejaVuSans-30"/>
      </g>
     </g>
    </g>
    <g id="ytick_5">
     <g id="line2d_12">
      <g>
       <use style="stroke:#000000;stroke-width:0.8;" x="54" xlink:href="#m4a0e0ebecc" y="112.139536"/>
      </g>
     </g>
     <g id="text_13">
      <!-- −20 -->
      <g transform="translate(25.895312 115.938755)scale(0.1 -0.1)">
       <use xlink:href="#DejaVuSans-2212"/>
       <use x="83.789062" xlink:href="#DejaVuSans-32"/>
       <use x="147.412109" xlink:href="#DejaVuSans-30"/>
      </g>
     </g>
    </g>
    <g id="ytick_6">
     <g id="line2d_13">
      <g>
       <use style="stroke:#000000;stroke-width:0.8;" x="54" xlink:href="#m4a0e0ebecc" y="78.796872"/>
      </g>
     </g>
     <g id="text_14">
      <!-- −10 -->
      <g transform="translate(25.895312 82.596091)scale(0.1 -0.1)">
       <use xlink:href="#DejaVuSans-2212"/>
       <use x="83.789062" xlink:href="#DejaVuSans-31"/>
       <use x="147.412109" xlink:href="#DejaVuSans-30"/>
      </g>
     </g>
    </g>
    <g id="ytick_7">
     <g id="line2d_14">
      <g>
       <use style="stroke:#000000;stroke-width:0.8;" x="54" xlink:href="#m4a0e0ebecc" y="45.454208"/>
      </g>
     </g>
     <g id="text_15">
      <!-- 0 -->
      <g transform="translate(40.6375 49.253426)scale(0.1 -0.1)">
       <use xlink:href="#DejaVuSans-30"/>
      </g>
     </g>
    </g>
    <g id="text_16">
     <!-- Attention Bias -->
     <g transform="translate(19.815625 178.433125)rotate(-90)scale(0.1 -0.1)">
      <defs>
       <path d="M 2188 4044 
L 1331 1722 
L 3047 1722 
L 2188 4044 
z
M 1831 4666 
L 2547 4666 
L 4325 0 
L 3669 0 
L 3244 1197 
L 1141 1197 
L 716 0 
L 50 0 
L 1831 4666 
z
" id="DejaVuSans-41" transform="scale(0.015625)"/>
       <path d="M 1959 3097 
Q 1497 3097 1228 2736 
Q 959 2375 959 1747 
Q 959 1119 1226 758 
Q 1494 397 1959 397 
Q 2419 397 2687 759 
Q 2956 1122 2956 1747 
Q 2956 2369 2687 2733 
Q 2419 3097 1959 3097 
z
M 1959 3584 
Q 2709 3584 3137 3096 
Q 3566 2609 3566 1747 
Q 3566 888 3137 398 
Q 2709 -91 1959 -91 
Q 1206 -91 779 398 
Q 353 888 353 1747 
Q 353 2609 779 3096 
Q 1206 3584 1959 3584 
z
" id="DejaVuSans-6f" transform="scale(0.015625)"/>
       <path d="M 1259 2228 
L 1259 519 
L 2272 519 
Q 2781 519 3026 730 
Q 3272 941 3272 1375 
Q 3272 1813 3026 2020 
Q 2781 2228 2272 2228 
L 1259 2228 
z
M 1259 4147 
L 1259 2741 
L 2194 2741 
Q 2656 2741 2882 2914 
Q 3109 3088 3109 3444 
Q 3109 3797 2882 3972 
Q 2656 4147 2194 4147 
L 1259 4147 
z
M 628 4666 
L 2241 4666 
Q 2963 4666 3353 4366 
Q 3744 4066 3744 3513 
Q 3744 3084 3544 2831 
Q 3344 2578 2956 2516 
Q 3422 2416 3680 2098 
Q 3938 1781 3938 1306 
Q 3938 681 3513 340 
Q 3088 0 2303 0 
L 628 0 
L 628 4666 
z
" id="DejaVuSans-42" transform="scale(0.015625)"/>
      </defs>
      <use xlink:href="#DejaVuSans-41"/>
      <use x="66.658203" xlink:href="#DejaVuSans-74"/>
      <use x="105.867188" xlink:href="#DejaVuSans-74"/>
      <use x="145.076172" xlink:href="#DejaVuSans-65"/>
      <use x="206.599609" xlink:href="#DejaVuSans-6e"/>
      <use x="269.978516" xlink:href="#DejaVuSans-74"/>
      <use x="309.1875" xlink:href="#DejaVuSans-69"/>
      <use x="336.970703" xlink:href="#DejaVuSans-6f"/>
      <use x="398.152344" xlink:href="#DejaVuSans-6e"/>
      <use x="461.53125" xlink:href="#DejaVuSans-20"/>
      <use x="493.318359" xlink:href="#DejaVuSans-42"/>
      <use x="561.921875" xlink:href="#DejaVuSans-69"/>
      <use x="589.705078" xlink:href="#DejaVuSans-61"/>
      <use x="650.984375" xlink:href="#DejaVuSans-73"/>
     </g>
    </g>
   </g>
   <g id="line2d_15">
    <path clip-path="url(#pc76608f31a)" d="M 69.218182 47.640947 
L 70.232727 44.443636 
L 71.247273 45.09052 
L 72.261818 45.38067 
L 74.290909 46.712761 
L 76.32 47.473599 
L 77.334545 47.651627 
L 79.363636 49.23329 
L 80.378182 51.384844 
L 81.392727 47.498279 
L 82.407273 48.680547 
L 83.421818 51.391866 
L 84.436364 49.596628 
L 86.465455 51.139322 
L 87.48 54.386882 
L 88.494545 52.799255 
L 89.509091 51.737178 
L 90.523636 51.901424 
L 91.538182 55.215724 
L 92.552727 54.719137 
L 93.567273 52.058699 
L 94.581818 58.29585 
L 95.596364 56.413017 
L 96.610909 56.744157 
L 97.625455 56.693956 
L 98.64 61.827161 
L 99.654545 54.701318 
L 100.669091 56.257605 
L 101.683636 52.696093 
L 102.698182 51.765161 
L 103.712727 55.610609 
L 104.727273 51.621579 
L 105.741818 55.02618 
L 106.756364 55.259993 
L 107.770909 49.738026 
L 108.785455 56.483303 
L 109.8 52.643403 
L 110.814545 74.340809 
L 111.829091 62.231853 
L 112.843636 53.908932 
L 113.858182 51.692121 
L 114.872727 61.728759 
L 115.887273 65.696385 
L 116.901818 57.324713 
L 117.916364 63.074913 
L 118.930909 67.303948 
L 119.945455 55.776434 
L 120.96 67.990269 
L 121.974545 64.631683 
L 122.989091 67.822075 
L 124.003636 73.656846 
L 125.018182 59.732667 
L 126.032727 66.126339 
L 127.047273 63.935213 
L 128.061818 78.71953 
L 129.076364 71.846928 
L 130.090909 86.76881 
L 131.105455 75.50436 
L 132.12 76.00971 
L 133.134545 68.941193 
L 134.149091 75.900217 
L 135.163636 71.173237 
L 136.178182 72.367807 
L 137.192727 57.169801 
L 138.207273 68.711713 
L 139.221818 71.400444 
L 140.236364 65.817812 
L 141.250909 74.656401 
L 142.265455 64.052932 
L 143.28 68.255137 
L 144.294545 71.207525 
L 146.323636 64.501978 
L 147.338182 57.980686 
L 148.352727 70.100902 
L 149.367273 74.093121 
L 150.381818 64.761248 
L 151.396364 68.225024 
L 152.410909 66.367815 
L 153.425455 70.514042 
L 154.44 76.069904 
L 155.454545 72.079529 
L 156.469091 78.468471 
L 157.483636 65.911693 
L 158.498182 76.903464 
L 159.512727 70.032048 
L 160.527273 67.212661 
L 161.541818 72.823877 
L 162.556364 96.887697 
L 163.570909 76.335964 
L 164.585455 69.038321 
L 165.6 73.828743 
L 166.614545 77.032612 
L 167.629091 82.550243 
L 168.643636 69.577355 
L 169.658182 82.436098 
L 170.672727 120.526378 
L 171.687273 103.915901 
L 172.701818 76.155501 
L 173.716364 82.776601 
L 174.730909 103.442384 
L 175.745455 101.894385 
L 176.76 102.544312 
L 177.774545 98.673873 
L 178.789091 81.895877 
L 179.803636 87.265533 
L 180.818182 93.723608 
L 181.832727 94.202181 
L 182.847273 87.582484 
L 183.861818 69.398547 
L 184.876364 76.76485 
L 185.890909 87.643965 
L 186.905455 81.795723 
L 188.934545 105.798002 
L 189.949091 75.207506 
L 190.963636 69.482934 
L 191.978182 100.112823 
L 192.992727 89.685336 
L 194.007273 102.168631 
L 195.021818 106.943113 
L 196.036364 81.723116 
L 197.050909 87.778528 
L 198.065455 113.760264 
L 199.08 85.842339 
L 200.094545 107.878179 
L 201.109091 77.8038 
L 202.123636 79.589018 
L 203.138182 86.649643 
L 204.152727 113.233942 
L 205.167273 95.409607 
L 206.181818 108.594004 
L 207.196364 140.208222 
L 208.210909 116.37473 
L 209.225455 126.467226 
L 210.24 128.200244 
L 211.254545 146.699087 
L 212.269091 86.184464 
L 213.283636 86.84324 
L 214.298182 106.390139 
L 215.312727 104.572505 
L 216.327273 96.725047 
L 218.356364 108.126547 
L 219.370909 123.851716 
L 220.385455 120.591552 
L 221.4 80.134002 
L 222.414545 92.039863 
L 223.429091 79.64264 
L 224.443636 84.154461 
L 225.458182 94.400655 
L 226.472727 130.571266 
L 227.487273 112.240953 
L 228.501818 132.265459 
L 229.516364 125.977981 
L 230.530909 142.713348 
L 231.545455 138.930831 
L 232.56 112.947111 
L 233.574545 134.217223 
L 234.589091 118.059066 
L 235.603636 88.399757 
L 236.618182 77.846473 
L 237.632727 98.56561 
L 238.647273 91.821363 
L 239.661818 96.006005 
L 240.676364 85.599023 
L 242.705455 130.006679 
L 243.72 139.518007 
L 244.734545 126.270663 
L 245.749091 99.65289 
L 246.763636 117.76849 
L 247.778182 105.678683 
L 248.792727 111.053385 
L 249.807273 121.140329 
L 250.821818 109.969085 
L 251.836364 105.185699 
L 252.850909 121.969113 
L 253.865455 135.035132 
L 254.88 138.157859 
L 255.894545 118.814175 
L 256.909091 143.849365 
L 257.923636 155.760587 
L 258.938182 117.040842 
L 259.952727 104.401572 
L 260.967273 128.19543 
L 261.981818 128.102224 
L 264.010909 139.506859 
L 265.025455 128.92454 
L 266.04 133.102301 
L 267.054545 107.523147 
L 268.069091 99.707977 
L 269.083636 128.822303 
L 270.098182 184.20933 
L 271.112727 133.369767 
L 272.127273 130.655518 
L 273.141818 76.865488 
L 274.156364 108.545531 
L 275.170909 109.864762 
L 276.185455 140.319095 
L 277.2 160.377002 
L 278.214545 114.392619 
L 279.229091 123.053941 
L 280.243636 116.407928 
L 281.258182 141.876767 
L 282.272727 138.057593 
L 283.287273 158.003176 
L 284.301818 110.526791 
L 285.316364 103.210665 
L 286.330909 103.340827 
L 287.345455 78.752663 
L 288.36 109.934514 
L 289.374545 106.55262 
L 290.389091 128.383547 
L 291.403636 110.55415 
L 292.418182 151.277184 
L 293.432727 204.395134 
L 294.447273 123.114179 
L 295.461818 134.922211 
L 296.476364 135.781756 
L 297.490909 164.89226 
L 298.505455 119.813256 
L 299.52 176.65484 
L 300.534545 143.163602 
L 301.549091 103.697162 
L 302.563636 132.383449 
L 303.578182 149.884169 
L 304.592727 163.456095 
L 305.607273 188.133259 
L 306.621818 152.907006 
L 307.636364 142.418154 
L 308.650909 137.366959 
L 309.665455 232.627713 
L 310.68 157.516119 
L 311.694545 180.391542 
L 312.709091 79.067966 
L 313.723636 89.899728 
L 314.738182 96.482183 
L 315.752727 84.550321 
L 316.767273 92.394243 
L 317.781818 114.80385 
L 318.796364 143.939353 
L 319.810909 100.139343 
L 320.825455 102.852695 
L 321.84 138.717415 
L 322.854545 129.228898 
L 323.869091 118.58285 
L 324.883636 121.503882 
L 325.898182 151.739979 
L 326.912727 134.0948 
L 327.927273 139.829889 
L 328.941818 135.547411 
L 329.956364 154.175417 
L 330.970909 124.045023 
L 331.985455 196.575347 
L 333 160.82117 
L 334.014545 188.682259 
L 335.029091 226.355549 
L 336.043636 215.417798 
L 337.058182 177.03461 
L 338.072727 242.116364 
L 339.087273 204.78017 
L 340.101818 236.461908 
L 341.116364 169.140263 
L 342.130909 137.523081 
L 343.145455 123.244081 
L 344.16 158.376345 
L 345.174545 164.194255 
L 346.189091 190.157421 
L 347.203636 138.433274 
L 348.218182 178.849973 
L 349.232727 202.522179 
L 350.247273 181.214565 
L 351.261818 153.159279 
L 352.276364 119.38341 
L 353.290909 121.91435 
L 354.305455 95.064124 
L 355.32 115.479126 
L 356.334545 100.866653 
L 357.349091 156.102035 
L 358.363636 133.71994 
L 359.378182 131.774764 
L 360.392727 130.161147 
L 361.407273 101.129057 
L 362.421818 108.499767 
L 363.436364 165.24256 
L 364.450909 125.496196 
L 365.465455 133.805419 
L 366.48 99.613747 
L 367.494545 167.747903 
L 369.523636 146.684332 
L 370.538182 148.095612 
L 371.552727 96.938495 
L 372.567273 72.516927 
L 373.581818 105.391737 
L 373.581818 105.391737 
" style="fill:none;stroke:#1f77b4;stroke-linecap:square;stroke-width:1.5;"/>
   </g>
   <g id="patch_3">
    <path d="M 54 252 
L 54 34.56 
" style="fill:none;stroke:#000000;stroke-linecap:square;stroke-linejoin:miter;stroke-width:0.8;"/>
   </g>
   <g id="patch_4">
    <path d="M 388.8 252 
L 388.8 34.56 
" style="fill:none;stroke:#000000;stroke-linecap:square;stroke-linejoin:miter;stroke-width:0.8;"/>
   </g>
   <g id="patch_5">
    <path d="M 54 252 
L 388.8 252 
" style="fill:none;stroke:#000000;stroke-linecap:square;stroke-linejoin:miter;stroke-width:0.8;"/>
   </g>
   <g id="patch_6">
    <path d="M 54 34.56 
L 388.8 34.56 
" style="fill:none;stroke:#000000;stroke-linecap:square;stroke-linejoin:miter;stroke-width:0.8;"/>
   </g>
   <g id="text_17">
    <!-- Distance bias for Layer 9, Token Index 300 (Averaged over heads) -->
    <g transform="translate(23.457188 28.56)scale(0.12 -0.12)">
     <defs>
      <path d="M 3116 1747 
Q 3116 2381 2855 2742 
Q 2594 3103 2138 3103 
Q 1681 3103 1420 2742 
Q 1159 2381 1159 1747 
Q 1159 1113 1420 752 
Q 1681 391 2138 391 
Q 2594 391 2855 752 
Q 3116 1113 3116 1747 
z
M 1159 2969 
Q 1341 3281 1617 3432 
Q 1894 3584 2278 3584 
Q 2916 3584 3314 3078 
Q 3713 2572 3713 1747 
Q 3713 922 3314 415 
Q 2916 -91 2278 -91 
Q 1894 -91 1617 61 
Q 1341 213 1159 525 
L 1159 0 
L 581 0 
L 581 4863 
L 1159 4863 
L 1159 2969 
z
" id="DejaVuSans-62" transform="scale(0.015625)"/>
      <path d="M 2375 4863 
L 2375 4384 
L 1825 4384 
Q 1516 4384 1395 4259 
Q 1275 4134 1275 3809 
L 1275 3500 
L 2222 3500 
L 2222 3053 
L 1275 3053 
L 1275 0 
L 697 0 
L 697 3053 
L 147 3053 
L 147 3500 
L 697 3500 
L 697 3744 
Q 697 4328 969 4595 
Q 1241 4863 1831 4863 
L 2375 4863 
z
" id="DejaVuSans-66" transform="scale(0.015625)"/>
      <path d="M 2631 2963 
Q 2534 3019 2420 3045 
Q 2306 3072 2169 3072 
Q 1681 3072 1420 2755 
Q 1159 2438 1159 1844 
L 1159 0 
L 581 0 
L 581 3500 
L 1159 3500 
L 1159 2956 
Q 1341 3275 1631 3429 
Q 1922 3584 2338 3584 
Q 2397 3584 2469 3576 
Q 2541 3569 2628 3553 
L 2631 2963 
z
" id="DejaVuSans-72" transform="scale(0.015625)"/>
      <path d="M 628 4666 
L 1259 4666 
L 1259 531 
L 3531 531 
L 3531 0 
L 628 0 
L 628 4666 
z
" id="DejaVuSans-4c" transform="scale(0.015625)"/>
      <path d="M 2059 -325 
Q 1816 -950 1584 -1140 
Q 1353 -1331 966 -1331 
L 506 -1331 
L 506 -850 
L 844 -850 
Q 1081 -850 1212 -737 
Q 1344 -625 1503 -206 
L 1606 56 
L 191 3500 
L 800 3500 
L 1894 763 
L 2988 3500 
L 3597 3500 
L 2059 -325 
z
" id="DejaVuSans-79" transform="scale(0.015625)"/>
      <path d="M 703 97 
L 703 672 
Q 941 559 1184 500 
Q 1428 441 1663 441 
Q 2288 441 2617 861 
Q 2947 1281 2994 2138 
Q 2813 1869 2534 1725 
Q 2256 1581 1919 1581 
Q 1219 1581 811 2004 
Q 403 2428 403 3163 
Q 403 3881 828 4315 
Q 1253 4750 1959 4750 
Q 2769 4750 3195 4129 
Q 3622 3509 3622 2328 
Q 3622 1225 3098 567 
Q 2575 -91 1691 -91 
Q 1453 -91 1209 -44 
Q 966 3 703 97 
z
M 1959 2075 
Q 2384 2075 2632 2365 
Q 2881 2656 2881 3163 
Q 2881 3666 2632 3958 
Q 2384 4250 1959 4250 
Q 1534 4250 1286 3958 
Q 1038 3666 1038 3163 
Q 1038 2656 1286 2365 
Q 1534 2075 1959 2075 
z
" id="DejaVuSans-39" transform="scale(0.015625)"/>
      <path d="M 750 794 
L 1409 794 
L 1409 256 
L 897 -744 
L 494 -744 
L 750 256 
L 750 794 
z
" id="DejaVuSans-2c" transform="scale(0.015625)"/>
      <path d="M -19 4666 
L 3928 4666 
L 3928 4134 
L 2272 4134 
L 2272 0 
L 1638 0 
L 1638 4134 
L -19 4134 
L -19 4666 
z
" id="DejaVuSans-54" transform="scale(0.015625)"/>
      <path d="M 581 4863 
L 1159 4863 
L 1159 1991 
L 2875 3500 
L 3609 3500 
L 1753 1863 
L 3688 0 
L 2938 0 
L 1159 1709 
L 1159 0 
L 581 0 
L 581 4863 
z
" id="DejaVuSans-6b" transform="scale(0.015625)"/>
      <path d="M 628 4666 
L 1259 4666 
L 1259 0 
L 628 0 
L 628 4666 
z
" id="DejaVuSans-49" transform="scale(0.015625)"/>
      <path d="M 2906 2969 
L 2906 4863 
L 3481 4863 
L 3481 0 
L 2906 0 
L 2906 525 
Q 2725 213 2448 61 
Q 2172 -91 1784 -91 
Q 1150 -91 751 415 
Q 353 922 353 1747 
Q 353 2572 751 3078 
Q 1150 3584 1784 3584 
Q 2172 3584 2448 3432 
Q 2725 3281 2906 2969 
z
M 947 1747 
Q 947 1113 1208 752 
Q 1469 391 1925 391 
Q 2381 391 2643 752 
Q 2906 1113 2906 1747 
Q 2906 2381 2643 2742 
Q 2381 3103 1925 3103 
Q 1469 3103 1208 2742 
Q 947 2381 947 1747 
z
" id="DejaVuSans-64" transform="scale(0.015625)"/>
      <path d="M 3513 3500 
L 2247 1797 
L 3578 0 
L 2900 0 
L 1881 1375 
L 863 0 
L 184 0 
L 1544 1831 
L 300 3500 
L 978 3500 
L 1906 2253 
L 2834 3500 
L 3513 3500 
z
" id="DejaVuSans-78" transform="scale(0.015625)"/>
      <path d="M 1984 4856 
Q 1566 4138 1362 3434 
Q 1159 2731 1159 2009 
Q 1159 1288 1364 580 
Q 1569 -128 1984 -844 
L 1484 -844 
Q 1016 -109 783 600 
Q 550 1309 550 2009 
Q 550 2706 781 3412 
Q 1013 4119 1484 4856 
L 1984 4856 
z
" id="DejaVuSans-28" transform="scale(0.015625)"/>
      <path d="M 2906 1791 
Q 2906 2416 2648 2759 
Q 2391 3103 1925 3103 
Q 1463 3103 1205 2759 
Q 947 2416 947 1791 
Q 947 1169 1205 825 
Q 1463 481 1925 481 
Q 2391 481 2648 825 
Q 2906 1169 2906 1791 
z
M 3481 434 
Q 3481 -459 3084 -895 
Q 2688 -1331 1869 -1331 
Q 1566 -1331 1297 -1286 
Q 1028 -1241 775 -1147 
L 775 -588 
Q 1028 -725 1275 -790 
Q 1522 -856 1778 -856 
Q 2344 -856 2625 -561 
Q 2906 -266 2906 331 
L 2906 616 
Q 2728 306 2450 153 
Q 2172 0 1784 0 
Q 1141 0 747 490 
Q 353 981 353 1791 
Q 353 2603 747 3093 
Q 1141 3584 1784 3584 
Q 2172 3584 2450 3431 
Q 2728 3278 2906 2969 
L 2906 3500 
L 3481 3500 
L 3481 434 
z
" id="DejaVuSans-67" transform="scale(0.015625)"/>
      <path d="M 3513 2113 
L 3513 0 
L 2938 0 
L 2938 2094 
Q 2938 2591 2744 2837 
Q 2550 3084 2163 3084 
Q 1697 3084 1428 2787 
Q 1159 2491 1159 1978 
L 1159 0 
L 581 0 
L 581 4863 
L 1159 4863 
L 1159 2956 
Q 1366 3272 1645 3428 
Q 1925 3584 2291 3584 
Q 2894 3584 3203 3211 
Q 3513 2838 3513 2113 
z
" id="DejaVuSans-68" transform="scale(0.015625)"/>
      <path d="M 513 4856 
L 1013 4856 
Q 1481 4119 1714 3412 
Q 1947 2706 1947 2009 
Q 1947 1309 1714 600 
Q 1481 -109 1013 -844 
L 513 -844 
Q 928 -128 1133 580 
Q 1338 1288 1338 2009 
Q 1338 2731 1133 3434 
Q 928 4138 513 4856 
z
" id="DejaVuSans-29" transform="scale(0.015625)"/>
     </defs>
     <use xlink:href="#DejaVuSans-44"/>
     <use x="77.001953" xlink:href="#DejaVuSans-69"/>
     <use x="104.785156" xlink:href="#DejaVuSans-73"/>
     <use x="156.884766" xlink:href="#DejaVuSans-74"/>
     <use x="196.09375" xlink:href="#DejaVuSans-61"/>
     <use x="257.373047" xlink:href="#DejaVuSans-6e"/>
     <use x="320.751953" xlink:href="#DejaVuSans-63"/>
     <use x="375.732422" xlink:href="#DejaVuSans-65"/>
     <use x="437.255859" xlink:href="#DejaVuSans-20"/>
     <use x="469.042969" xlink:href="#DejaVuSans-62"/>
     <use x="532.519531" xlink:href="#DejaVuSans-69"/>
     <use x="560.302734" xlink:href="#DejaVuSans-61"/>
     <use x="621.582031" xlink:href="#DejaVuSans-73"/>
     <use x="673.681641" xlink:href="#DejaVuSans-20"/>
     <use x="705.46875" xlink:href="#DejaVuSans-66"/>
     <use x="740.673828" xlink:href="#DejaVuSans-6f"/>
     <use x="801.855469" xlink:href="#DejaVuSans-72"/>
     <use x="842.96875" xlink:href="#DejaVuSans-20"/>
     <use x="874.755859" xlink:href="#DejaVuSans-4c"/>
     <use x="930.46875" xlink:href="#DejaVuSans-61"/>
     <use x="991.748047" xlink:href="#DejaVuSans-79"/>
     <use x="1050.927734" xlink:href="#DejaVuSans-65"/>
     <use x="1112.451172" xlink:href="#DejaVuSans-72"/>
     <use x="1153.564453" xlink:href="#DejaVuSans-20"/>
     <use x="1185.351562" xlink:href="#DejaVuSans-39"/>
     <use x="1248.974609" xlink:href="#DejaVuSans-2c"/>
     <use x="1280.761719" xlink:href="#DejaVuSans-20"/>
     <use x="1312.548828" xlink:href="#DejaVuSans-54"/>
     <use x="1356.632812" xlink:href="#DejaVuSans-6f"/>
     <use x="1417.814453" xlink:href="#DejaVuSans-6b"/>
     <use x="1472.099609" xlink:href="#DejaVuSans-65"/>
     <use x="1533.623047" xlink:href="#DejaVuSans-6e"/>
     <use x="1597.001953" xlink:href="#DejaVuSans-20"/>
     <use x="1628.789062" xlink:href="#DejaVuSans-49"/>
     <use x="1658.28125" xlink:href="#DejaVuSans-6e"/>
     <use x="1721.660156" xlink:href="#DejaVuSans-64"/>
     <use x="1785.136719" xlink:href="#DejaVuSans-65"/>
     <use x="1844.910156" xlink:href="#DejaVuSans-78"/>
     <use x="1904.089844" xlink:href="#DejaVuSans-20"/>
     <use x="1935.876953" xlink:href="#DejaVuSans-33"/>
     <use x="1999.5" xlink:href="#DejaVuSans-30"/>
     <use x="2063.123047" xlink:href="#DejaVuSans-30"/>
     <use x="2126.746094" xlink:href="#DejaVuSans-20"/>
     <use x="2158.533203" xlink:href="#DejaVuSans-28"/>
     <use x="2197.546875" xlink:href="#DejaVuSans-41"/>
     <use x="2260.080078" xlink:href="#DejaVuSans-76"/>
     <use x="2319.259766" xlink:href="#DejaVuSans-65"/>
     <use x="2380.783203" xlink:href="#DejaVuSans-72"/>
     <use x="2421.896484" xlink:href="#DejaVuSans-61"/>
     <use x="2483.175781" xlink:href="#DejaVuSans-67"/>
     <use x="2546.652344" xlink:href="#DejaVuSans-65"/>
     <use x="2608.175781" xlink:href="#DejaVuSans-64"/>
     <use x="2671.652344" xlink:href="#DejaVuSans-20"/>
     <use x="2703.439453" xlink:href="#DejaVuSans-6f"/>
     <use x="2764.621094" xlink:href="#DejaVuSans-76"/>
     <use x="2823.800781" xlink:href="#DejaVuSans-65"/>
     <use x="2885.324219" xlink:href="#DejaVuSans-72"/>
     <use x="2926.4375" xlink:href="#DejaVuSans-20"/>
     <use x="2958.224609" xlink:href="#DejaVuSans-68"/>
     <use x="3021.603516" xlink:href="#DejaVuSans-65"/>
     <use x="3083.126953" xlink:href="#DejaVuSans-61"/>
     <use x="3144.40625" xlink:href="#DejaVuSans-64"/>
     <use x="3207.882812" xlink:href="#DejaVuSans-73"/>
     <use x="3259.982422" xlink:href="#DejaVuSans-29"/>
    </g>
   </g>
  </g>
 </g>
 <defs>
  <clipPath id="pc76608f31a">
   <rect height="217.44" width="334.8" x="54" y="34.56"/>
  </clipPath>
 </defs>
</svg>
